<svg width="37" height="35" viewBox="0 0 37 35" fill="none" xmlns="http://www.w3.org/2000/svg">
<path d="M30.8333 29.1667C30.8333 29.9721 30.1431 30.625 29.2916 30.625H7.70829C6.85686 30.625 6.16663 29.9721 6.16663 29.1667V16.0417H1.54163L17.4629 2.35011C18.0509 1.84444 18.949 1.84444 19.537 2.35011L35.4583 16.0417H30.8333V29.1667ZM18.5 24.7917L23.6781 19.8934C25.0326 18.612 25.0326 16.5344 23.6781 15.253C22.3234 13.9717 20.1272 13.9717 18.7725 15.253L18.5 15.5108L18.2274 15.253C16.8727 13.9717 14.6765 13.9717 13.3219 15.253C11.9672 16.5344 11.9672 18.612 13.3219 19.8934L18.5 24.7917Z" fill="#65AEED" fill-opacity="0.71"/>
</svg>
