<svg width="50" height="50" viewBox="0 0 50 50" fill="none" xmlns="http://www.w3.org/2000/svg">
<path fill-rule="evenodd" clip-rule="evenodd" d="M9.375 25.875C9.375 24.8141 9.79643 23.7967 10.5466 23.0466C11.2967 22.2964 12.3141 21.875 13.375 21.875C14.4359 21.875 15.4533 22.2964 16.2034 23.0466C16.9536 23.7967 17.375 24.8141 17.375 25.875C17.375 26.9359 16.9536 27.9533 16.2034 28.7034C15.4533 29.4536 14.4359 29.875 13.375 29.875C12.3141 29.875 11.2967 29.4536 10.5466 28.7034C9.79643 27.9533 9.375 26.9359 9.375 25.875ZM25.375 25.875C25.375 24.8141 25.7964 23.7967 26.5466 23.0466C27.2967 22.2964 28.3141 21.875 29.375 21.875C30.4359 21.875 31.4533 22.2964 32.2034 23.0466C32.9536 23.7967 33.375 24.8141 33.375 25.875C33.375 26.9359 32.9536 27.9533 32.2034 28.7034C31.4533 29.4536 30.4359 29.875 29.375 29.875C28.3141 29.875 27.2967 29.4536 26.5466 28.7034C25.7964 27.9533 25.375 26.9359 25.375 25.875ZM41.375 25.875C41.375 24.8141 41.7964 23.7967 42.5466 23.0466C43.2967 22.2964 44.3141 21.875 45.375 21.875C46.4359 21.875 47.4533 22.2964 48.2034 23.0466C48.9536 23.7967 49.375 24.8141 49.375 25.875C49.375 26.9359 48.9536 27.9533 48.2034 28.7034C47.4533 29.4536 46.4359 29.875 45.375 29.875C44.3141 29.875 43.2967 29.4536 42.5466 28.7034C41.7964 27.9533 41.375 26.9359 41.375 25.875Z" fill="#65AEED"/>
</svg>
