<?xml version="1.0" ?><svg height="64" id="svg3162" version="1.1" viewBox="0 0 16.933333 16.933334" width="64" xmlns="http://www.w3.org/2000/svg" xmlns:cc="http://creativecommons.org/ns#" xmlns:dc="http://purl.org/dc/elements/1.1/" xmlns:inkscape="http://www.inkscape.org/namespaces/inkscape" xmlns:rdf="http://www.w3.org/1999/02/22-rdf-syntax-ns#" xmlns:sodipodi="http://sodipodi.sourceforge.net/DTD/sodipodi-0.dtd" xmlns:svg="http://www.w3.org/2000/svg"><defs id="defs3156"><pattern height="6" id="EMFhbasepattern" patternUnits="userSpaceOnUse" width="6" x="0" y="0"/></defs><g id="layer1" transform="translate(0,-280.06665)"><path d="m 8.731244,293.83553 c 0,0.12698 -0.126999,0.25398 -0.275165,0.25398 -0.126999,0 -0.253998,-0.127 -0.253998,-0.25398 0,-0.14817 0.126999,-0.27517 0.253998,-0.27517 0.148166,0 0.275165,0.127 0.275165,0.27517 z" id="path835" style="fill:#000000;fill-opacity:1;fill-rule:nonzero;stroke:none;stroke-width:0.26458335"/><path d="m 7.948083,293.03119 c 0,0.14816 -0.126999,0.254 -0.275165,0.254 -0.148165,0 -0.275164,-0.10584 -0.253998,-0.254 0,-0.14817 0.105833,-0.27517 0.253998,-0.27517 0.148166,0 0.275165,0.127 0.275165,0.27517 z" id="path837" style="fill:#000000;fill-opacity:1;fill-rule:nonzero;stroke:none;stroke-width:0.26458335"/><path d="m 9.514404,293.03119 c 0,0.14816 -0.105832,0.254 -0.253998,0.254 -0.148165,0 -0.275164,-0.10584 -0.275164,-0.254 0,-0.14817 0.126999,-0.27517 0.275164,-0.27517 0.148166,0 0.253998,0.127 0.253998,0.27517 z" id="path839" style="fill:#000000;fill-opacity:1;fill-rule:nonzero;stroke:none;stroke-width:0.26458335"/><path d="m 10.318732,293.83553 c 0,0.12698 -0.126999,0.25398 -0.275165,0.25398 -0.126999,0 -0.253998,-0.127 -0.253998,-0.25398 0,-0.14817 0.126999,-0.27517 0.253998,-0.27517 0.148166,0 0.275165,0.127 0.275165,0.27517 z" id="path841" style="fill:#000000;fill-opacity:1;fill-rule:nonzero;stroke:none;stroke-width:0.26458335"/><path d="m 5.027104,281.91877 c -0.571495,0 -1.058325,0.48683 -1.058325,1.05833 v 1.20649 c -0.148166,-0.0847 -0.338664,-0.14817 -0.529163,-0.14817 -0.571496,0 -1.058325,0.48683 -1.058325,1.05833 v 2.11665 c 0,0.57149 0.486829,1.05832 1.058325,1.05832 0.571496,0 1.058326,-0.48683 1.058326,-1.05832 v -1.20649 c 0.148165,0.0847 0.338664,0.14817 0.529162,0.14817 0.571496,0 1.058326,-0.48683 1.058326,-1.05832 v -2.11665 c 0,-0.5715 -0.48683,-1.05833 -1.058326,-1.05834 z m 0,0.52916 c 0.296332,0 0.529163,0.23283 0.529163,0.52917 v 1.05832 H 4.497942 v -1.05832 c 0,-0.29634 0.232831,-0.52917 0.529162,-0.52917 z m -1.587488,2.11665 c 0.296331,0 0.529163,0.23284 0.529163,0.52917 v 1.05832 H 2.910453 v -1.05832 c 0,-0.29633 0.232832,-0.52917 0.529163,-0.52917 z" id="path843" style="fill:#000000;fill-opacity:1;fill-rule:nonzero;stroke:none;stroke-width:0.26458335"/><path d="m 10.847895,290.91454 c -0.571496,0 -1.058326,0.48683 -1.058326,1.05832 0,0.5715 0.48683,1.05833 1.058326,1.05833 0.571495,0 1.058325,-0.48683 1.058325,-1.05833 0,-0.57149 -0.48683,-1.05832 -1.058325,-1.05832 z" id="path845" style="fill:#000000;fill-opacity:1;fill-rule:nonzero;stroke:none;stroke-width:0.26458335"/><path d="m 12.181385,281.91877 c -0.211665,0 -0.423331,0.10583 -0.571496,0.254 -0.126999,0.127 -0.232832,0.3175 -0.232832,0.55033 0,0.16933 0.08467,0.35983 0.211665,0.50799 0.08467,0.0847 0.169332,0.16934 0.232832,0.23284 l -1.227658,1.24883 c -0.380997,-0.381 -0.761994,-0.74084 -1.142991,-1.12183 -0.08467,-0.0847 -0.169332,-0.0847 -0.190499,-0.0847 -0.148165,0 -0.253998,0.127 -0.253998,0.27516 0,0 0,0.10584 0.0635,0.16933 l 0.613829,0.61383 -5.905456,5.90546 c -0.04233,0.0423 -0.0635,0.10583 -0.0635,0.1905 0,0.0635 0.02117,0.127 0.0635,0.16933 l 0.740828,0.74083 -1.799154,1.79915 c -0.0635,0.0847 -0.0635,0.16933 -0.0635,0.1905 0,0.14817 0.105832,0.27517 0.253998,0.27517 0.02117,0 0.105832,0 0.190498,-0.0847 l 1.799154,-1.79915 0.740828,0.74082 c 0.04233,0.0423 0.105832,0.0847 0.190498,0.0847 0.0635,0 0.126999,-0.0423 0.169332,-0.0847 l 0.825494,-0.82549 c -0.275165,-0.27516 -0.571495,-0.55033 -0.84666,-0.84666 -0.08467,-0.0635 -0.08467,-0.14817 -0.08467,-0.1905 0,-0.14816 0.126999,-0.254 0.275164,-0.254 0.02117,0 0.105833,0 0.190499,0.0847 0.275164,0.27516 0.550329,0.55033 0.84666,0.84666 l 0.867827,-0.88899 c -0.296331,-0.27517 -0.571496,-0.55033 -0.84666,-0.84666 -0.08467,-0.0635 -0.08467,-0.14817 -0.08467,-0.16934 0,-0.14816 0.126998,-0.27516 0.275164,-0.27516 0.02117,0 0.105833,0 0.169332,0.0847 0.296331,0.27517 0.571496,0.55033 0.846661,0.84667 l 0.952493,-0.9525 c -0.275165,-0.27516 -0.55033,-0.57149 -0.846661,-0.84666 -0.0635,-0.0847 -0.0635,-0.16933 -0.0635,-0.1905 0,-0.14816 0.105833,-0.254 0.253998,-0.254 0.02117,0 0.105833,0 0.190499,0.0635 0.275165,0.29634 0.571496,0.5715 0.84666,0.84666 l 2.137818,-2.13781 0.613829,0.61383 c 0.0635,0.0847 0.148166,0.0847 0.190499,0.0847 0.126999,0 0.253998,-0.127 0.253998,-0.27516 0,-0.0212 0,-0.10583 -0.08467,-0.1905 -0.380997,-0.381 -0.740828,-0.762 -1.121826,-1.12183 l 1.248825,-1.24882 c 0.0635,0.0635 0.148166,0.14817 0.232832,0.23283 0.148165,0.14817 0.317497,0.21167 0.529162,0.21167 0.190499,0 0.402164,-0.10584 0.55033,-0.254 0.126999,-0.127 0.232831,-0.3175 0.232831,-0.52916 0,-0.1905 -0.08467,-0.40217 -0.211665,-0.52917 l -1.650988,-1.65098 c -0.126999,-0.12701 -0.317498,-0.21168 -0.507996,-0.21168 z m 0,0.52916 c 0.04233,0 0.105832,0.0212 0.148165,0.0635 l 1.629822,1.62982 c 0.04233,0.0423 0.0635,0.10584 0.0635,0.16934 0,0.0423 -0.02117,0.10583 -0.08467,0.16933 -0.0635,0.0635 -0.126999,0.0847 -0.169332,0.0847 -0.0635,0 -0.126999,-0.0212 -0.169332,-0.0635 -0.529162,-0.55033 -1.079492,-1.10065 -1.629821,-1.62982 -0.04233,-0.0423 -0.0635,-0.10583 -0.0635,-0.14816 0,-0.0635 0.02117,-0.127 0.08467,-0.1905 0.0635,-0.0635 0.126999,-0.0847 0.190498,-0.0847 z m -2.116651,2.49765 c 0.486829,0.48683 0.973659,0.97366 1.460489,1.46049 l -1.079492,1.10066 -1.481656,-1.48165 z" id="path847" style="fill:#000000;fill-opacity:1;fill-rule:nonzero;stroke:none;stroke-width:0.26458335"/><path d="m 12.710548,293.03119 c -0.592663,0 -1.079493,0.48683 -1.079493,1.05832 0,0.5715 0.48683,1.05833 1.079493,1.05833 0.571496,0 1.058325,-0.48683 1.058325,-1.05833 0,-0.57149 -0.486829,-1.05832 -1.058325,-1.05832 z" id="path849" style="fill:#000000;fill-opacity:1;fill-rule:nonzero;stroke:none;stroke-width:0.26458335"/><path d="m 13.493709,290.38537 c -0.571496,0 -1.058326,0.48683 -1.058326,1.05834 0,0.5715 0.48683,1.05833 1.058326,1.05833 0.571496,0 1.058325,-0.48683 1.058325,-1.05833 0,-0.57151 -0.486829,-1.05834 -1.058325,-1.05834 z" id="path851" style="fill:#000000;fill-opacity:1;fill-rule:nonzero;stroke:none;stroke-width:0.26458335"/></g></svg>