<svg width="37" height="35" viewBox="0 0 37 35" fill="none" xmlns="http://www.w3.org/2000/svg">
<path d="M28.3281 3.28125C26.7325 3.28125 25.4375 4.50625 25.4375 6.01562V28.9844C25.4375 30.4938 26.7325 31.7188 28.3281 31.7188H29.4844C31.08 31.7188 32.375 30.4938 32.375 28.9844V6.01562C32.375 4.50479 31.08 3.28125 29.4844 3.28125H28.3281ZM15.0312 12.5781C15.0312 11.0673 16.3263 9.84375 17.9219 9.84375H19.0781C20.6753 9.84375 21.9688 11.0688 21.9688 12.5781V28.9844C21.9688 30.4938 20.6737 31.7188 19.0781 31.7188H17.9219C17.1552 31.7188 16.42 31.4307 15.8779 30.9179C15.3358 30.4051 15.0312 29.7096 15.0312 28.9844V12.5781ZM4.625 19.1406C4.625 17.6298 5.92 16.4062 7.51562 16.4062H8.67188C10.269 16.4062 11.5625 17.6313 11.5625 19.1406V28.9844C11.5625 30.4938 10.2675 31.7188 8.67188 31.7188H7.51562C6.74898 31.7188 6.01374 31.4307 5.47164 30.9179C4.92955 30.4051 4.625 29.7096 4.625 28.9844V19.1406Z" fill="#65AEED" fill-opacity="0.71"/>
</svg>
